<?xml version="1.0"?><svg fill="#000000" xmlns="http://www.w3.org/2000/svg" viewBox="0 0 30 30" width="240px" height="240px">    <path d="M 15 3 C 11.074 3 7.5981563 4.8945469 5.4101562 7.8105469 L 9.7519531 12.152344 C 10.767953 10.283344 12.724 9 15 9 C 16.342 9 17.568359 9.4552188 18.568359 10.199219 L 25.800781 10.199219 L 20.369141 12.371094 C 20.760141 13.168094 21 14.053 21 15 C 21 16.972 20.035359 18.707781 18.568359 19.800781 L 18.599609 19.800781 L 13.839844 26.941406 C 14.220844 26.978406 14.608 27 15 27 C 21.628 27 27 21.628 27 15 C 27 8.372 21.628 3 15 3 z M 5.40625 7.8125 C 3.90225 9.8175 3 12.3 3 15 C 3 21.229 7.7473125 26.346453 13.820312 26.939453 L 15.828125 20.916016 C 15.554125 20.954016 15.283 21 15 21 C 11.687 21 9 18.313 9 15 L 5.40625 7.8125 z M 15 11 A 4 4 0 0 0 11 15 A 4 4 0 0 0 15 19 A 4 4 0 0 0 19 15 A 4 4 0 0 0 15 11 z"/></svg>