<?xml version="1.0"?><svg fill="#000000" xmlns="http://www.w3.org/2000/svg" viewBox="0 0 30 30" width="240px" height="240px">    <path d="M8.41,9.356c-2.855,1.777-4.487,4.303-4.487,4.303S4.346,8.364,8.41,5.264C10.026,4.032,12.236,3,15.209,3 c1.116,0,3.458,0.194,5.567,1.494s2.962,2.389,3.911,3.984c0.41,0.688,0.744,1.572,0.953,2.425c0.39,1.597,0.438,3.509,0.438,3.509 v2.518H11.004c0,0-0.368,5.064,6.564,5.064c2.411,0,3.256-0.379,4.048-0.613c1.241-0.367,2.44-1.187,2.44-1.187l0.002,5.059 c0,0-2.837,1.747-7.123,1.747c-1.207,0-2.479-0.101-3.706-0.499c-1.072-0.348-3.317-1.286-4.819-3.485 c-0.532-0.778-1.108-1.812-1.393-2.824c-0.308-1.093-0.305-2.155-0.305-2.74c0-2.188,0.748-4.277,2.045-5.788 c1.68-1.956,3.804-2.818,3.804-2.818s-0.691,0.806-1.116,1.811c-0.426,1.004-0.542,2.015-0.542,2.015h8.512 c0,0,0.498-5.086-4.816-5.086C12.595,7.588,10.136,8.282,8.41,9.356z"/></svg>