<?xml version="1.0"?><svg fill="#000000" xmlns="http://www.w3.org/2000/svg" viewBox="0 0 30 30" width="240px" height="240px">    <path d="M 15 3 C 11.129369 3 7.7320436 5.003188 5.7714844 8.0253906 C 5.4064096 7.5274844 5.0193886 6.5729923 4.8710938 5.5878906 C 3.9720937 6.4698906 3.6097656 8.0832344 3.7597656 10.240234 C 3.6917656 10.335234 2.4550781 11.9325 2.4550781 13.4375 C 2.4520781 13.4385 2.4652344 13.75175 2.4902344 13.84375 L 3.2207031 13.248047 C 2.9567031 13.915047 2.8169375 15.354469 2.8359375 16.105469 C 2.8749375 17.684469 2.9943438 19.832609 4.6523438 22.224609 C 7.1393438 25.441609 10.332656 26.747563 14.097656 26.976562 C 17.859656 27.200563 21.202516 26.01925 23.853516 23.03125 C 25.646516 20.83125 26.642578 19.070594 27.142578 16.683594 C 27.493578 15.014594 27.632281 13.192578 27.488281 11.892578 C 27.373281 12.450578 27.104406 12.988047 26.816406 13.373047 C 26.781406 11.945047 26.709406 10.400344 26.316406 9.2773438 C 26.041406 8.5203438 25.607938 7.4528125 25.085938 6.7578125 C 25.329937 7.7168125 25.251812 8.5820469 25.257812 9.1230469 C 24.639364 6.6045141 22.861397 5.455089 21.234375 4.9414062 C 19.461931 3.7192113 17.315757 3 15 3 z M 15 5 C 19.104159 5 22.568111 7.7632989 23.646484 11.525391 C 23.353712 11.147914 22.937596 10.704558 22.623047 10.546875 C 23.152047 12.605875 23.308906 14.087688 22.878906 15.429688 C 22.584906 14.534688 22.152156 13.312 21.910156 13.125 C 22.247156 15.883 21.954844 18.611406 20.714844 19.941406 C 20.834844 19.472406 20.831344 18.688062 20.777344 18.164062 C 19.320344 20.348063 18.011344 21.333344 16.152344 21.402344 C 15.083344 21.396344 13.765531 21 13.769531 21 C 12.812531 20.678 11.959078 20.13875 11.330078 19.34375 C 12.618078 19.70275 13.946375 19.894234 14.734375 19.490234 L 16.521484 18.392578 L 16.515625 18.386719 C 16.721625 18.309719 16.916516 18.315297 17.103516 18.404297 C 17.492516 18.351297 17.626094 18.146781 17.496094 17.800781 C 17.308094 17.540781 17.025156 17.305609 16.660156 17.099609 C 15.867156 16.686609 15.037828 16.753781 14.173828 17.300781 C 13.351828 17.764781 12.100187 17.279875 11.242188 16.921875 C 10.926187 16.790875 10.085813 16.147813 10.007812 15.632812 C 9.9208125 15.060813 10.139984 14.634625 10.583984 14.765625 C 10.457984 14.754625 11.875875 15.005219 12.546875 15.199219 C 12.546875 14.446219 12.130734 13.706047 11.927734 13.123047 L 11.927734 13.109375 C 12.556734 12.527375 13.373609 12.167437 13.849609 11.898438 C 14.425609 11.613437 14.354531 11.015719 14.144531 10.886719 C 13.376531 10.959719 12.816406 10.810547 12.816406 10.810547 C 12.632406 10.756547 12.144328 10.534672 11.861328 10.263672 L 11.310547 9.7421875 C 11.310547 9.7421875 11.096375 9.5874219 11.109375 9.4824219 C 11.316375 8.1234219 12.350625 7.2429219 13.015625 6.7949219 C 11.780625 6.9499219 10.661969 7.499125 9.6679688 8.453125 C 9.274621 8.3101408 8.7392883 8.1829624 8.1855469 8.1367188 C 9.8372293 6.2197857 12.276793 5 15 5 z"/></svg>