<svg fill="#000000" xmlns="http://www.w3.org/2000/svg" viewBox="0 0 50 50" width="250px" height="250px"><path d="M 25 1.9199219 C 12.265113 1.9199219 1.9199219 12.265113 1.9199219 25 C 1.9199219 37.734887 12.265113 48.080078 25 48.080078 C 37.734887 48.080078 48.080078 37.734887 48.080078 25 C 48.080078 12.265113 37.734887 1.9199219 25 1.9199219 z M 25 3.9199219 C 36.654007 3.9199219 46.080078 13.345993 46.080078 25 C 46.080078 36.654007 36.654007 46.080078 25 46.080078 C 13.345993 46.080078 3.9199219 36.654007 3.9199219 25 C 3.9199219 24.635812 3.929075 24.273679 3.9472656 23.914062 C 4.511175 12.765948 13.710181 3.9199219 25 3.9199219 z M 25 6 C 14.523 6 6 14.523 6 25 C 6 35.477 14.523 44 25 44 C 35.477 44 44 35.477 44 25 C 44 14.523 35.477 6 25 6 z M 25 9 C 25.553 9 26 9.447 26 10 L 26 11 C 26 11.553 25.553 12 25 12 C 24.447 12 24 11.553 24 11 L 24 10 C 24 9.447 24.447 9 25 9 z M 30.736328 10.142578 C 30.866187 10.141547 30.998 10.16625 31.125 10.21875 C 31.635 10.42975 31.877016 11.014391 31.666016 11.525391 L 31.283203 12.449219 C 31.124203 12.834219 30.752375 13.066406 30.359375 13.066406 C 30.231375 13.066406 30.101563 13.042234 29.976562 12.990234 C 29.466563 12.778234 29.224547 12.193594 29.435547 11.683594 L 29.818359 10.759766 C 29.976609 10.377266 30.34675 10.145672 30.736328 10.142578 z M 19.253906 10.146484 C 19.643391 10.148594 20.012875 10.381172 20.171875 10.763672 L 20.556641 11.685547 C 20.769641 12.195547 20.527578 12.780188 20.017578 12.992188 C 19.892578 13.045188 19.760813 13.070312 19.632812 13.070312 C 19.240813 13.070312 18.869938 12.838125 18.710938 12.453125 L 18.326172 11.53125 C 18.113172 11.02125 18.355234 10.436609 18.865234 10.224609 C 18.992484 10.171359 19.124078 10.145781 19.253906 10.146484 z M 37 13 L 28 28 L 13 37 L 22 22 L 37 13 z M 14.382812 13.402344 C 14.638812 13.402344 14.896297 13.498859 15.091797 13.693359 L 15.798828 14.400391 C 16.189828 14.791391 16.190781 15.424406 15.800781 15.816406 C 15.605781 16.011406 15.347797 16.109375 15.091797 16.109375 C 14.835797 16.109375 14.579766 16.010406 14.384766 15.816406 L 13.677734 15.109375 C 13.286734 14.719375 13.285781 14.087313 13.675781 13.695312 C 13.871281 13.499813 14.126813 13.402344 14.382812 13.402344 z M 38.845703 18.21875 C 39.235516 18.220297 39.605875 18.451484 39.765625 18.833984 C 39.978625 19.343984 39.738516 19.929578 39.228516 20.142578 L 38.304688 20.529297 C 38.178688 20.582297 38.048922 20.605469 37.919922 20.605469 C 37.528922 20.605469 37.156094 20.376188 36.996094 19.992188 C 36.783094 19.481188 37.023203 18.896594 37.533203 18.683594 L 38.455078 18.296875 C 38.582328 18.243625 38.715766 18.218234 38.845703 18.21875 z M 11.136719 18.261719 C 11.266531 18.260766 11.398641 18.285391 11.525391 18.337891 L 12.449219 18.720703 C 12.959219 18.931703 13.201234 19.517344 12.990234 20.027344 C 12.831234 20.412344 12.458406 20.644531 12.066406 20.644531 C 11.938406 20.644531 11.808594 20.620359 11.683594 20.568359 L 10.759766 20.185547 C 10.249766 19.974547 10.00775 19.388906 10.21875 18.878906 C 10.377 18.495656 10.747281 18.264578 11.136719 18.261719 z M 25 23 A 2 2 0 0 0 23.009766 24.800781 A 2 2 0 0 0 23 25 A 2 2 0 0 0 25 27 A 2 2 0 0 0 27 25 A 2 2 0 0 0 25 23 z M 10 24 L 11 24 C 11.553 24 12 24.447 12 25 C 12 25.553 11.553 26 11 26 L 10 26 C 9.447 26 9 25.553 9 25 C 9 24.447 9.447 24 10 24 z M 39 24 L 40 24 C 40.553 24 41 24.447 41 25 C 41 25.553 40.553 26 40 26 L 39 26 C 38.447 26 38 25.553 38 25 C 38 24.447 38.447 24 39 24 z M 37.927734 29.355469 C 38.057641 29.354516 38.189156 29.379141 38.316406 29.431641 L 39.240234 29.814453 C 39.750234 30.025453 39.99225 30.611094 39.78125 31.121094 C 39.62225 31.506094 39.249422 31.738281 38.857422 31.738281 C 38.729422 31.738281 38.599609 31.714109 38.474609 31.662109 L 37.550781 31.279297 C 37.040781 31.068297 36.798766 30.482656 37.009766 29.972656 C 37.168016 29.589406 37.538016 29.358328 37.927734 29.355469 z M 12.083984 29.394531 C 12.473656 29.396219 12.844156 29.625313 13.003906 30.007812 C 13.216906 30.517812 12.976797 31.103406 12.466797 31.316406 L 11.544922 31.703125 C 11.418922 31.756125 11.287203 31.779297 11.158203 31.779297 C 10.767203 31.779297 10.394375 31.550016 10.234375 31.166016 C 10.021375 30.656016 10.261484 30.070422 10.771484 29.857422 L 11.695312 29.470703 C 11.822313 29.417703 11.954094 29.393969 12.083984 29.394531 z M 34.908203 33.890625 C 35.164203 33.890625 35.419734 33.989094 35.615234 34.183594 L 36.322266 34.890625 C 36.713266 35.280625 36.714219 35.912688 36.324219 36.304688 C 36.129219 36.499688 35.871234 36.597656 35.615234 36.597656 C 35.359234 36.597656 35.103203 36.500641 34.908203 36.306641 L 34.201172 35.599609 C 33.810172 35.208609 33.809219 34.575594 34.199219 34.183594 C 34.394719 33.988094 34.652203 33.890625 34.908203 33.890625 z M 30.373047 36.929688 C 30.762766 36.931797 31.130813 37.164375 31.289062 37.546875 L 31.673828 38.46875 C 31.886828 38.97875 31.644766 39.563391 31.134766 39.775391 C 31.009766 39.828391 30.879953 39.853516 30.751953 39.853516 C 30.359953 39.853516 29.987125 39.621328 29.828125 39.236328 L 29.443359 38.314453 C 29.230359 37.804453 29.472422 37.219813 29.982422 37.007812 C 30.109672 36.954563 30.243141 36.928984 30.373047 36.929688 z M 19.634766 36.933594 C 19.764625 36.932562 19.896438 36.957266 20.023438 37.009766 C 20.533437 37.221766 20.775453 37.806406 20.564453 38.316406 L 20.181641 39.240234 C 20.022641 39.625234 19.650813 39.857422 19.257812 39.857422 C 19.129812 39.857422 19 39.83325 18.875 39.78125 C 18.365 39.57025 18.122984 38.985609 18.333984 38.474609 L 18.716797 37.550781 C 18.875047 37.168281 19.245188 36.936688 19.634766 36.933594 z M 25 38 C 25.553 38 26 38.447 26 39 L 26 40 C 26 40.553 25.553 41 25 41 C 24.447 41 24 40.553 24 40 L 24 39 C 24 38.447 24.447 38 25 38 z"/></svg>